<?xml version="1.0" encoding="UTF-8"?>
<svg viewBox="0 0 500 500" xmlns="http://www.w3.org/2000/svg" xmlns:xlink="http://www.w3.org/1999/xlink">
 <g transform="translate(7.5602e-7 400)">
  <path id="a" d="m0.02826-152.08c-0.61746 15.934 8.9672 28.352 20.585 38.017 12.796 9.5061 30.71 18.034 52.859 24.997 44.297 13.926 105.17 22.393 172.12 22.393h4.4266v-2.0831c-134.53 1e-5 -233.32-38.479-233.32-83.324h-16.665z"/>
  <use transform="matrix(1,0,0,-1,0,-300)" width="100" height="100" xlink:href="#a"/>
  <use transform="matrix(-1,0,0,1,500,0)" width="100" height="100" xlink:href="#a"/>
  <use transform="matrix(-1,0,0,-1,500,-300)" width="100" height="100" xlink:href="#a"/>
  <path transform="matrix(12.499 0 0 12.499 -374.93 -774.93)" d="m54 50c0 2.2091-1.7909 4-4 4s-4-1.7909-4-4 1.7909-4 4-4 4 1.7909 4 4z"/>
  <g transform="matrix(.70711 -.70711 .70711 .70711 179.29 132.84)">
   <path d="m0.02826-152.08c-0.61746 15.934 8.9672 28.352 20.585 38.017 12.796 9.5061 30.71 18.034 52.859 24.997 44.297 13.926 105.17 22.393 172.12 22.393h4.4266v-2.0831c-134.53 1e-5 -233.32-38.479-233.32-83.324h-16.665z"/>
   <use transform="matrix(1,0,0,-1,0,-300)" width="100" height="100" xlink:href="#a"/>
   <use transform="matrix(-1,0,0,1,500,0)" width="100" height="100" xlink:href="#a"/>
   <use transform="matrix(-1,0,0,-1,500,-300)" width="100" height="100" xlink:href="#a"/>
  </g>
  <g transform="matrix(.70711 .70711 -.70711 .70711 -32.843 -220.71)">
   <path d="m0.02826-152.08c-0.61746 15.934 8.9672 28.352 20.585 38.017 12.796 9.5061 30.71 18.034 52.859 24.997 44.297 13.926 105.17 22.393 172.12 22.393h4.4266v-2.0831c-134.53 1e-5 -233.32-38.479-233.32-83.324h-16.665z"/>
   <use transform="matrix(1,0,0,-1,0,-300)" width="100" height="100" xlink:href="#a"/>
   <use transform="matrix(-1,0,0,1,500,0)" width="100" height="100" xlink:href="#a"/>
   <use transform="matrix(-1,0,0,-1,500,-300)" width="100" height="100" xlink:href="#a"/>
  </g>
  <g transform="matrix(0,1,-1,0,100,-400)">
   <path d="m0.02826-152.08c-0.61746 15.934 8.9672 28.352 20.585 38.017 12.796 9.5061 30.71 18.034 52.859 24.997 44.297 13.926 105.17 22.393 172.12 22.393h4.4266v-2.0831c-134.53 1e-5 -233.32-38.479-233.32-83.324h-16.665z"/>
   <use transform="matrix(1,0,0,-1,0,-300)" width="100" height="100" xlink:href="#a"/>
   <use transform="matrix(-1,0,0,1,500,0)" width="100" height="100" xlink:href="#a"/>
   <use transform="matrix(-1,0,0,-1,500,-300)" width="100" height="100" xlink:href="#a"/>
  </g>
 </g>
</svg>
